<?xml version="1.0" ?>
<svg width="64px" height="64px" viewBox="0 0 64 64" data-name="Layer 1" id="Layer_1" xmlns="http://www.w3.org/2000/svg">
<defs>
<style>.cls-1{fill:#facd67;}</style>

</defs>
<title/>
<path class="cls-1" d="M14.73,42.9a5,5,0,0,0,1.35.94,30.35,30.35,0,0,0,2.12,9.71,10.2,10.2,0,0,1,.8,3.91V61a3,3,0,0,0,3,3H34a3,3,0,0,0,3-3,7.53,7.53,0,0,1,1.66-4.71l6.53-8.14c.11-.12.21-.25.31-.37s.2-.21.29-.33.19-.27.28-.41l.25-.36c.09-.15.15-.3.23-.44s.14-.26.2-.39.13-.32.19-.48l.15-.39c0-.17.09-.34.13-.52s.07-.25.1-.38,0-.37.07-.55,0-.25.06-.38,0-.42,0-.63,0-.2,0-.31a7.47,7.47,0,0,0-.09-.94h0l-.08-.48-1-6.48a8,8,0,0,0-.6-2l0,0a.67.67,0,0,0-.06-.12,8,8,0,0,0-4.45-4.08L38.05,27l3.47-3.4L45,20a1,1,0,0,1,.9-.26,10,10,0,0,0,11.64-6.89,9.91,9.91,0,0,0,.37-4,2,2,0,0,0-3.42-1.17l-2.78,2.84a1,1,0,0,1-1.42,0L47.49,7.73A1,1,0,0,1,47.2,7a1,1,0,0,1,.3-.72l2.79-2.84a2,2,0,0,0,.47-2.08A2,2,0,0,0,49.11.06a10.16,10.16,0,0,0-4,.38,10,10,0,0,0-6.84,11.63A1,1,0,0,1,38,13L32.18,18.7a4,4,0,0,0-7.09,1.55A4,4,0,0,0,20,24.1a3.85,3.85,0,0,0,.25,1.39l-.24,0a4,4,0,0,0-2.92,5.79,4,4,0,0,0-2.66,4.89,5,5,0,0,0,.3,6.7Zm.83-4.83.18.13a2.42,2.42,0,0,0,.31.25,4.14,4.14,0,0,0,.62.35l4,1.72a3.58,3.58,0,0,0,.55.19l-.81.8a3.12,3.12,0,0,1-.41.33l-.14.09-.33.17-.18.08-.38.11-.29,0-.16,0a3.22,3.22,0,0,1-1.14-.14h0a2.91,2.91,0,0,1-1.17-.71,3,3,0,0,1-.59-3.42ZM42.44,31.2a6,6,0,0,1,1.82,3.43l1.13,7a5.69,5.69,0,0,1,.07.71,6.07,6.07,0,0,1-1.73,4.48l-.07.07L37.1,55A9.5,9.5,0,0,0,35,61a1,1,0,0,1-1,1H22a1,1,0,0,1-1-1V57.46a12.1,12.1,0,0,0-1-4.68,28.18,28.18,0,0,1-1.94-8.43h.17a4.34,4.34,0,0,0,.62-.06,2.11,2.11,0,0,0,.25,0,4.26,4.26,0,0,0,.7-.19l.25-.07a5.56,5.56,0,0,0,.73-.37l.16-.08a5.2,5.2,0,0,0,.79-.63l5.61-5.51a3.75,3.75,0,0,0,1.7-1l.06-.05a4.91,4.91,0,0,0,.41-.48,3.81,3.81,0,0,0,.66-1.5,4.13,4.13,0,0,0,.93-.09,6.84,6.84,0,0,0,2.56,1.58l2.38.91a1.51,1.51,0,0,1,1,1.24,1.55,1.55,0,0,1-1,1.62c-5.36,2-8.39,5.44-9,10.19A1,1,0,0,0,27.87,51H28a1,1,0,0,0,1-.87c.54-4,3.07-6.82,7.74-8.57A3.57,3.57,0,0,0,39,37.82,3.5,3.5,0,0,0,36.79,35L34.38,34a5,5,0,0,1-2.22-1.55,3.3,3.3,0,0,1-.34-.49c-.06-.09-.12-.18-.17-.27a4.41,4.41,0,0,1-.28-.58c-.05-.13-.1-.26-.14-.4s-.07-.25-.1-.37-.05-.3-.07-.45a2.58,2.58,0,0,1,0-.39.48.48,0,0,1,0-.12,3.37,3.37,0,0,1,0-.55,1.36,1.36,0,0,1,0-.2.78.78,0,0,1,0-.16,4.86,4.86,0,0,1,.19-.82,1,1,0,0,1,1.25-.63L40.42,30A6.15,6.15,0,0,1,42.44,31.2ZM39.37,14.38a3,3,0,0,0,.81-2.73A7.78,7.78,0,0,1,40.26,8a7.93,7.93,0,0,1,5.38-5.64,7.76,7.76,0,0,1,3.23-.3L46.08,4.9a3,3,0,0,0,0,4.25L48.91,12a3.08,3.08,0,0,0,4.25,0L56,9.11h0a8.12,8.12,0,0,1-.29,3.2A7.9,7.9,0,0,1,50,17.74a7.77,7.77,0,0,1-3.68.08,3,3,0,0,0-2.74.81l-7.1,7,0-.06a3.65,3.65,0,0,0-.35-.75h0L33.3,20.41Zm-11.44,5a2,2,0,0,1,2.76.62l.49.77h0l3,4.74-1-.37a2.94,2.94,0,0,0-2.29.15,2.61,2.61,0,0,0-.28.17l-3.55-3.95A2,2,0,0,1,27.93,19.4Zm-5.34,3.29a2,2,0,0,1,2.85,0l3.92,4.37c-.05.16-.09.32-.14.49a7,7,0,0,0,.42,4.63l-5.45-5.09-1.6-1.6a2,2,0,0,1,0-2.82ZM19,28.3a2,2,0,0,1,2.79-.45l1,.76,5.45,5.07v0a2,2,0,0,1-.37,1l0,0a1.79,1.79,0,0,1-.22.25l0,0a2,2,0,0,1-1,.48,2,2,0,0,1-1.08-.08l-5.41-3.8h0l-.75-.55A2,2,0,0,1,19,28.3Zm-2.59,6a2,2,0,0,1,1.84-1.2,2,2,0,0,1,.8.16l.08,0,5.06,3.55a2,2,0,0,1-.15.77A1.94,1.94,0,0,1,23,38.71a2,2,0,0,1-1.53,0l-4-1.73,0,0a1.77,1.77,0,0,1-.33-.19l0,0a2.17,2.17,0,0,1-.6-.75h0l-.06-.11A2,2,0,0,1,16.43,34.33Z"/><path class="cls-1" d="M25.55,11.78a.51.51,0,0,0,.23.67l2,1a.54.54,0,0,0,.22.05.5.5,0,0,0,.22-.95l-2-1A.51.51,0,0,0,25.55,11.78Z"/><path class="cls-1" d="M29,10.5a.47.47,0,0,0,.35-.15.48.48,0,0,0,0-.7l-2-2a.49.49,0,0,0-.7.7l2,2A.47.47,0,0,0,29,10.5Z"/>
<path class="cls-1" d="M32.5,10V9a.5.5,0,0,0-1,0v1a.5.5,0,0,0,1,0Z"/>
</svg>